<mxfile host="app.diagrams.net" agent="Mozilla/5.0 (Macintosh; Intel Mac OS X 10_15_7) AppleWebKit/537.36 (KHTML, like Gecko) Chrome/136.0.0.0 Safari/537.36" version="28.2.3">
  <diagram name="ページ1" id="xtR3QMY_ivg9KzAQHW-j">
    <mxGraphModel dx="1215" dy="785" grid="1" gridSize="10" guides="1" tooltips="1" connect="1" arrows="1" fold="1" page="1" pageScale="1" pageWidth="827" pageHeight="1169" math="0" shadow="0">
      <root>
        <mxCell id="0" />
        <mxCell id="1" parent="0" />
        <mxCell id="ZU2mIR0JqzNXLWRJzjO4-150" value="" style="verticalLabelPosition=bottom;verticalAlign=top;html=1;shape=mxgraph.basic.rect;fillColor2=none;strokeWidth=1;size=20;indent=5;strokeColor=none;" parent="1" vertex="1">
          <mxGeometry x="170" y="120" width="1560" height="1110" as="geometry" />
        </mxCell>
        <mxCell id="JZybzeYJvGHH00LdQQcP-5" value="" style="rounded=1;whiteSpace=wrap;html=1;strokeWidth=3;" parent="1" vertex="1">
          <mxGeometry x="320" y="180" width="810" height="700" as="geometry" />
        </mxCell>
        <mxCell id="ZU2mIR0JqzNXLWRJzjO4-134" style="edgeStyle=orthogonalEdgeStyle;rounded=0;orthogonalLoop=1;jettySize=auto;html=1;" parent="1" edge="1">
          <mxGeometry relative="1" as="geometry">
            <mxPoint x="398.0020481927711" y="520" as="sourcePoint" />
            <mxPoint x="690.002048192771" y="1060" as="targetPoint" />
            <Array as="points">
              <mxPoint x="397.99" y="960" />
              <mxPoint x="689.99" y="960" />
            </Array>
          </mxGeometry>
        </mxCell>
        <mxCell id="ZU2mIR0JqzNXLWRJzjO4-2" value="" style="rounded=1;whiteSpace=wrap;html=1;strokeWidth=3;" parent="1" vertex="1">
          <mxGeometry x="340" y="310" width="211" height="210" as="geometry" />
        </mxCell>
        <mxCell id="ZU2mIR0JqzNXLWRJzjO4-7" value="プロダクト" style="rounded=0;whiteSpace=wrap;html=1;strokeWidth=2;" parent="1" vertex="1">
          <mxGeometry x="634" y="1060" width="168" height="120" as="geometry" />
        </mxCell>
        <mxCell id="ZU2mIR0JqzNXLWRJzjO4-19" value="" style="rounded=1;whiteSpace=wrap;html=1;strokeWidth=3;" parent="1" vertex="1">
          <mxGeometry x="690" y="230" width="370" height="320" as="geometry" />
        </mxCell>
        <mxCell id="ZU2mIR0JqzNXLWRJzjO4-60" style="edgeStyle=orthogonalEdgeStyle;rounded=0;orthogonalLoop=1;jettySize=auto;html=1;" parent="1" target="ZU2mIR0JqzNXLWRJzjO4-59" edge="1">
          <mxGeometry relative="1" as="geometry">
            <mxPoint x="1044" y="455.1999999999999" as="sourcePoint" />
            <Array as="points">
              <mxPoint x="1340" y="455.2" />
            </Array>
          </mxGeometry>
        </mxCell>
        <mxCell id="ZU2mIR0JqzNXLWRJzjO4-63" style="edgeStyle=orthogonalEdgeStyle;rounded=0;orthogonalLoop=1;jettySize=auto;html=1;entryX=0.5;entryY=0;entryDx=0;entryDy=0;" parent="1" target="ZU2mIR0JqzNXLWRJzjO4-64" edge="1">
          <mxGeometry relative="1" as="geometry">
            <mxPoint x="1464" y="579.6099999999999" as="targetPoint" />
            <mxPoint x="1044.0000000000005" y="469.79692307692306" as="sourcePoint" />
            <Array as="points">
              <mxPoint x="1490" y="470.2" />
            </Array>
          </mxGeometry>
        </mxCell>
        <mxCell id="ZU2mIR0JqzNXLWRJzjO4-33" value="開発者" style="shape=umlActor;verticalLabelPosition=bottom;verticalAlign=top;html=1;outlineConnect=0;strokeWidth=2;" parent="1" vertex="1">
          <mxGeometry x="370" y="430" width="30" height="60" as="geometry" />
        </mxCell>
        <mxCell id="ZU2mIR0JqzNXLWRJzjO4-34" value="開発者" style="shape=umlActor;verticalLabelPosition=bottom;verticalAlign=top;html=1;outlineConnect=0;strokeWidth=2;" parent="1" vertex="1">
          <mxGeometry x="430" y="430" width="30" height="60" as="geometry" />
        </mxCell>
        <mxCell id="ZU2mIR0JqzNXLWRJzjO4-35" value="開発者" style="shape=umlActor;verticalLabelPosition=bottom;verticalAlign=top;html=1;outlineConnect=0;strokeWidth=2;" parent="1" vertex="1">
          <mxGeometry x="491" y="430" width="30" height="60" as="geometry" />
        </mxCell>
        <mxCell id="ZU2mIR0JqzNXLWRJzjO4-37" value="チームリーダー" style="shape=umlActor;verticalLabelPosition=bottom;verticalAlign=top;html=1;outlineConnect=0;strokeWidth=2;" parent="1" vertex="1">
          <mxGeometry x="430" y="330" width="30" height="60" as="geometry" />
        </mxCell>
        <mxCell id="ZU2mIR0JqzNXLWRJzjO4-44" value="開発チーム" style="text;html=1;align=center;verticalAlign=middle;resizable=0;points=[];autosize=1;strokeColor=none;fillColor=none;" parent="1" vertex="1">
          <mxGeometry x="405.5" y="288" width="80" height="30" as="geometry" />
        </mxCell>
        <mxCell id="ZU2mIR0JqzNXLWRJzjO4-99" style="edgeStyle=orthogonalEdgeStyle;rounded=0;orthogonalLoop=1;jettySize=auto;html=1;entryX=0.468;entryY=-0.047;entryDx=0;entryDy=0;entryPerimeter=0;" parent="1" target="ZU2mIR0JqzNXLWRJzjO4-76" edge="1">
          <mxGeometry relative="1" as="geometry">
            <mxPoint x="758" y="520" as="sourcePoint" />
            <mxPoint x="740.003698630137" y="655" as="targetPoint" />
            <Array as="points">
              <mxPoint x="758" y="580" />
              <mxPoint x="739" y="580" />
            </Array>
          </mxGeometry>
        </mxCell>
        <mxCell id="ZU2mIR0JqzNXLWRJzjO4-101" style="edgeStyle=orthogonalEdgeStyle;rounded=0;orthogonalLoop=1;jettySize=auto;html=1;entryX=0.508;entryY=-0.054;entryDx=0;entryDy=0;entryPerimeter=0;" parent="1" target="ZU2mIR0JqzNXLWRJzjO4-85" edge="1">
          <mxGeometry relative="1" as="geometry">
            <mxPoint x="770" y="520" as="sourcePoint" />
            <mxPoint x="867.0000000000002" y="655" as="targetPoint" />
            <Array as="points">
              <mxPoint x="770" y="580" />
              <mxPoint x="868" y="580" />
            </Array>
          </mxGeometry>
        </mxCell>
        <mxCell id="ZU2mIR0JqzNXLWRJzjO4-45" value="開発者" style="shape=umlActor;verticalLabelPosition=bottom;verticalAlign=top;html=1;outlineConnect=0;strokeWidth=2;" parent="1" vertex="1">
          <mxGeometry x="747" y="430" width="30" height="60" as="geometry" />
        </mxCell>
        <mxCell id="ZU2mIR0JqzNXLWRJzjO4-100" style="edgeStyle=orthogonalEdgeStyle;rounded=0;orthogonalLoop=1;jettySize=auto;html=1;entryX=0.5;entryY=0;entryDx=0;entryDy=0;" parent="1" target="ZU2mIR0JqzNXLWRJzjO4-87" edge="1">
          <mxGeometry relative="1" as="geometry">
            <mxPoint x="999" y="540" as="sourcePoint" />
            <mxPoint x="998.36" y="655" as="targetPoint" />
            <Array as="points">
              <mxPoint x="999" y="586" />
              <mxPoint x="999" y="586" />
            </Array>
          </mxGeometry>
        </mxCell>
        <mxCell id="ZU2mIR0JqzNXLWRJzjO4-46" value="開発者" style="shape=umlActor;verticalLabelPosition=bottom;verticalAlign=top;html=1;outlineConnect=0;strokeWidth=2;" parent="1" vertex="1">
          <mxGeometry x="963.5" y="380" width="70" height="130" as="geometry" />
        </mxCell>
        <mxCell id="ZU2mIR0JqzNXLWRJzjO4-47" value="チームリーダー" style="shape=umlActor;verticalLabelPosition=bottom;verticalAlign=top;html=1;outlineConnect=0;strokeWidth=2;" parent="1" vertex="1">
          <mxGeometry x="860" y="242" width="30" height="60" as="geometry" />
        </mxCell>
        <mxCell id="ZU2mIR0JqzNXLWRJzjO4-48" value="開発チーム" style="text;html=1;align=center;verticalAlign=middle;resizable=0;points=[];autosize=1;strokeColor=none;fillColor=none;" parent="1" vertex="1">
          <mxGeometry x="845" y="190" width="80" height="30" as="geometry" />
        </mxCell>
        <mxCell id="ZU2mIR0JqzNXLWRJzjO4-50" value="" style="endArrow=classic;startArrow=classic;html=1;rounded=0;edgeStyle=orthogonalEdgeStyle;" parent="1" edge="1">
          <mxGeometry width="50" height="50" relative="1" as="geometry">
            <mxPoint x="782" y="458" as="sourcePoint" />
            <mxPoint x="962" y="458" as="targetPoint" />
            <Array as="points">
              <mxPoint x="872" y="458" />
              <mxPoint x="872" y="458" />
            </Array>
          </mxGeometry>
        </mxCell>
        <mxCell id="ZU2mIR0JqzNXLWRJzjO4-51" value="" style="endArrow=classic;html=1;rounded=0;" parent="1" target="ZU2mIR0JqzNXLWRJzjO4-46" edge="1">
          <mxGeometry width="50" height="50" relative="1" as="geometry">
            <mxPoint x="892" y="330.00142857142856" as="sourcePoint" />
            <mxPoint x="960" y="400" as="targetPoint" />
          </mxGeometry>
        </mxCell>
        <mxCell id="ZU2mIR0JqzNXLWRJzjO4-56" value="" style="endArrow=classic;startArrow=classic;html=1;rounded=0;edgeStyle=orthogonalEdgeStyle;" parent="1" edge="1">
          <mxGeometry width="50" height="50" relative="1" as="geometry">
            <mxPoint x="530" y="458" as="sourcePoint" />
            <mxPoint x="740.5" y="458.00067160391717" as="targetPoint" />
          </mxGeometry>
        </mxCell>
        <mxCell id="ZU2mIR0JqzNXLWRJzjO4-57" value="コミュニケーション&lt;div&gt;フィードバック&lt;/div&gt;&lt;div&gt;サポート&lt;/div&gt;" style="text;html=1;align=center;verticalAlign=middle;resizable=0;points=[];autosize=1;strokeColor=none;fillColor=none;" parent="1" vertex="1">
          <mxGeometry x="812" y="458" width="130" height="60" as="geometry" />
        </mxCell>
        <mxCell id="ZU2mIR0JqzNXLWRJzjO4-58" value="コミュニケーション" style="text;html=1;align=center;verticalAlign=middle;resizable=0;points=[];autosize=1;strokeColor=none;fillColor=none;" parent="1" vertex="1">
          <mxGeometry x="560" y="437" width="130" height="30" as="geometry" />
        </mxCell>
        <mxCell id="ZU2mIR0JqzNXLWRJzjO4-59" value="ドキュメント" style="rounded=0;whiteSpace=wrap;html=1;strokeWidth=2;" parent="1" vertex="1">
          <mxGeometry x="1300" y="280.2" width="80" height="40" as="geometry" />
        </mxCell>
        <mxCell id="ZU2mIR0JqzNXLWRJzjO4-61" value="書く・読む" style="text;html=1;align=center;verticalAlign=middle;resizable=0;points=[];autosize=1;strokeColor=none;fillColor=none;" parent="1" vertex="1">
          <mxGeometry x="1340" y="368.2" width="80" height="30" as="geometry" />
        </mxCell>
        <mxCell id="ZU2mIR0JqzNXLWRJzjO4-64" value="開発ツール" style="rounded=0;whiteSpace=wrap;html=1;strokeWidth=2;" parent="1" vertex="1">
          <mxGeometry x="1450" y="280.19999999999993" width="80" height="40" as="geometry" />
        </mxCell>
        <mxCell id="ZU2mIR0JqzNXLWRJzjO4-65" value="使う" style="text;html=1;align=center;verticalAlign=middle;resizable=0;points=[];autosize=1;strokeColor=none;fillColor=none;" parent="1" vertex="1">
          <mxGeometry x="1490" y="368.2" width="50" height="30" as="geometry" />
        </mxCell>
        <mxCell id="ZU2mIR0JqzNXLWRJzjO4-67" value="ミーティング" style="text;html=1;align=center;verticalAlign=middle;resizable=0;points=[];autosize=1;strokeColor=none;fillColor=none;" parent="1" vertex="1">
          <mxGeometry x="827" y="382" width="100" height="30" as="geometry" />
        </mxCell>
        <mxCell id="ZU2mIR0JqzNXLWRJzjO4-68" value="管理&lt;div&gt;フィードバック&lt;/div&gt;&lt;div&gt;サポート&lt;/div&gt;" style="text;html=1;align=center;verticalAlign=middle;resizable=0;points=[];autosize=1;strokeColor=none;fillColor=none;" parent="1" vertex="1">
          <mxGeometry x="907" y="314" width="110" height="60" as="geometry" />
        </mxCell>
        <mxCell id="ZU2mIR0JqzNXLWRJzjO4-69" value="" style="endArrow=classic;startArrow=classic;html=1;rounded=0;" parent="1" source="ZU2mIR0JqzNXLWRJzjO4-45" edge="1">
          <mxGeometry width="50" height="50" relative="1" as="geometry">
            <mxPoint x="777" y="460.9045454545455" as="sourcePoint" />
            <mxPoint x="857" y="329.9954545454545" as="targetPoint" />
          </mxGeometry>
        </mxCell>
        <mxCell id="ZU2mIR0JqzNXLWRJzjO4-70" value="コミュニケーション" style="text;html=1;align=center;verticalAlign=middle;resizable=0;points=[];autosize=1;strokeColor=none;fillColor=none;" parent="1" vertex="1">
          <mxGeometry x="697" y="360" width="130" height="30" as="geometry" />
        </mxCell>
        <mxCell id="ZU2mIR0JqzNXLWRJzjO4-73" value="プロジェクト" style="text;html=1;align=center;verticalAlign=middle;resizable=0;points=[];autosize=1;strokeColor=none;fillColor=none;" parent="1" vertex="1">
          <mxGeometry x="692" y="150" width="100" height="30" as="geometry" />
        </mxCell>
        <mxCell id="ZU2mIR0JqzNXLWRJzjO4-75" style="edgeStyle=orthogonalEdgeStyle;rounded=0;orthogonalLoop=1;jettySize=auto;html=1;exitX=0.5;exitY=1;exitDx=0;exitDy=0;entryX=0.5;entryY=0;entryDx=0;entryDy=0;" parent="1" source="ZU2mIR0JqzNXLWRJzjO4-76" target="ZU2mIR0JqzNXLWRJzjO4-78" edge="1">
          <mxGeometry relative="1" as="geometry" />
        </mxCell>
        <mxCell id="ZU2mIR0JqzNXLWRJzjO4-76" value="チケット" style="rounded=0;whiteSpace=wrap;html=1;strokeWidth=2;" parent="1" vertex="1">
          <mxGeometry x="702" y="630" width="80" height="40" as="geometry" />
        </mxCell>
        <mxCell id="ZU2mIR0JqzNXLWRJzjO4-77" style="edgeStyle=orthogonalEdgeStyle;rounded=0;orthogonalLoop=1;jettySize=auto;html=1;" parent="1" source="ZU2mIR0JqzNXLWRJzjO4-78" edge="1">
          <mxGeometry relative="1" as="geometry">
            <mxPoint x="643.99" y="850" as="sourcePoint" />
            <mxPoint x="710" y="1060" as="targetPoint" />
            <Array as="points">
              <mxPoint x="742" y="960" />
              <mxPoint x="710" y="960" />
              <mxPoint x="710" y="1060" />
            </Array>
          </mxGeometry>
        </mxCell>
        <mxCell id="ZU2mIR0JqzNXLWRJzjO4-78" value="コード" style="rounded=0;whiteSpace=wrap;html=1;strokeWidth=2;" parent="1" vertex="1">
          <mxGeometry x="702" y="720" width="80" height="40" as="geometry" />
        </mxCell>
        <mxCell id="ZU2mIR0JqzNXLWRJzjO4-80" style="edgeStyle=orthogonalEdgeStyle;rounded=0;orthogonalLoop=1;jettySize=auto;html=1;exitX=0.5;exitY=1;exitDx=0;exitDy=0;" parent="1" source="ZU2mIR0JqzNXLWRJzjO4-81" edge="1">
          <mxGeometry relative="1" as="geometry">
            <mxPoint x="730" y="1060" as="targetPoint" />
            <Array as="points">
              <mxPoint x="867" y="970" />
              <mxPoint x="730" y="970" />
              <mxPoint x="730" y="1059" />
            </Array>
          </mxGeometry>
        </mxCell>
        <mxCell id="ZU2mIR0JqzNXLWRJzjO4-81" value="コード" style="rounded=0;whiteSpace=wrap;html=1;strokeWidth=2;" parent="1" vertex="1">
          <mxGeometry x="827" y="720" width="80" height="40" as="geometry" />
        </mxCell>
        <mxCell id="ZU2mIR0JqzNXLWRJzjO4-82" style="edgeStyle=orthogonalEdgeStyle;rounded=0;orthogonalLoop=1;jettySize=auto;html=1;exitX=0.5;exitY=1;exitDx=0;exitDy=0;" parent="1" edge="1">
          <mxGeometry relative="1" as="geometry">
            <mxPoint x="997.5" y="759.99" as="sourcePoint" />
            <mxPoint x="749" y="1060" as="targetPoint" />
            <Array as="points">
              <mxPoint x="997" y="979.99" />
              <mxPoint x="749" y="979.99" />
              <mxPoint x="749" y="1059.99" />
            </Array>
          </mxGeometry>
        </mxCell>
        <mxCell id="ZU2mIR0JqzNXLWRJzjO4-83" value="コード" style="rounded=0;whiteSpace=wrap;html=1;strokeWidth=2;" parent="1" vertex="1">
          <mxGeometry x="958.5" y="720" width="80" height="40" as="geometry" />
        </mxCell>
        <mxCell id="ZU2mIR0JqzNXLWRJzjO4-84" style="edgeStyle=orthogonalEdgeStyle;rounded=0;orthogonalLoop=1;jettySize=auto;html=1;exitX=0.5;exitY=1;exitDx=0;exitDy=0;entryX=0.5;entryY=0;entryDx=0;entryDy=0;" parent="1" source="ZU2mIR0JqzNXLWRJzjO4-85" target="ZU2mIR0JqzNXLWRJzjO4-81" edge="1">
          <mxGeometry relative="1" as="geometry" />
        </mxCell>
        <mxCell id="ZU2mIR0JqzNXLWRJzjO4-85" value="チケット" style="rounded=0;whiteSpace=wrap;html=1;strokeWidth=2;" parent="1" vertex="1">
          <mxGeometry x="827" y="630" width="80" height="40" as="geometry" />
        </mxCell>
        <mxCell id="ZU2mIR0JqzNXLWRJzjO4-86" style="edgeStyle=orthogonalEdgeStyle;rounded=0;orthogonalLoop=1;jettySize=auto;html=1;exitX=0.5;exitY=1;exitDx=0;exitDy=0;entryX=0.5;entryY=0;entryDx=0;entryDy=0;" parent="1" source="ZU2mIR0JqzNXLWRJzjO4-87" target="ZU2mIR0JqzNXLWRJzjO4-83" edge="1">
          <mxGeometry relative="1" as="geometry" />
        </mxCell>
        <mxCell id="ZU2mIR0JqzNXLWRJzjO4-87" value="チケット" style="rounded=0;whiteSpace=wrap;html=1;strokeWidth=2;" parent="1" vertex="1">
          <mxGeometry x="958.5" y="630" width="80" height="40" as="geometry" />
        </mxCell>
        <mxCell id="ZU2mIR0JqzNXLWRJzjO4-88" value="実装" style="text;html=1;align=center;verticalAlign=middle;resizable=0;points=[];autosize=1;strokeColor=none;fillColor=none;" parent="1" vertex="1">
          <mxGeometry x="732" y="680" width="50" height="30" as="geometry" />
        </mxCell>
        <mxCell id="ZU2mIR0JqzNXLWRJzjO4-89" value="実装" style="text;html=1;align=center;verticalAlign=middle;resizable=0;points=[];autosize=1;strokeColor=none;fillColor=none;" parent="1" vertex="1">
          <mxGeometry x="857" y="680" width="50" height="30" as="geometry" />
        </mxCell>
        <mxCell id="ZU2mIR0JqzNXLWRJzjO4-90" value="実装" style="text;html=1;align=center;verticalAlign=middle;resizable=0;points=[];autosize=1;strokeColor=none;fillColor=none;" parent="1" vertex="1">
          <mxGeometry x="990" y="680" width="50" height="30" as="geometry" />
        </mxCell>
        <mxCell id="ZU2mIR0JqzNXLWRJzjO4-91" value="テスト" style="text;html=1;align=center;verticalAlign=middle;resizable=0;points=[];autosize=1;strokeColor=none;fillColor=none;" parent="1" vertex="1">
          <mxGeometry x="988" y="770" width="60" height="30" as="geometry" />
        </mxCell>
        <mxCell id="ZU2mIR0JqzNXLWRJzjO4-92" value="リリース" style="text;html=1;align=center;verticalAlign=middle;resizable=0;points=[];autosize=1;strokeColor=none;fillColor=none;" parent="1" vertex="1">
          <mxGeometry x="990" y="810" width="70" height="30" as="geometry" />
        </mxCell>
        <mxCell id="ZU2mIR0JqzNXLWRJzjO4-93" value="テスト" style="text;html=1;align=center;verticalAlign=middle;resizable=0;points=[];autosize=1;strokeColor=none;fillColor=none;" parent="1" vertex="1">
          <mxGeometry x="857" y="770" width="60" height="30" as="geometry" />
        </mxCell>
        <mxCell id="ZU2mIR0JqzNXLWRJzjO4-94" value="リリース" style="text;html=1;align=center;verticalAlign=middle;resizable=0;points=[];autosize=1;strokeColor=none;fillColor=none;" parent="1" vertex="1">
          <mxGeometry x="857" y="810" width="70" height="30" as="geometry" />
        </mxCell>
        <mxCell id="ZU2mIR0JqzNXLWRJzjO4-95" value="リリース" style="text;html=1;align=center;verticalAlign=middle;resizable=0;points=[];autosize=1;strokeColor=none;fillColor=none;" parent="1" vertex="1">
          <mxGeometry x="732" y="810" width="70" height="30" as="geometry" />
        </mxCell>
        <mxCell id="ZU2mIR0JqzNXLWRJzjO4-96" value="テスト" style="text;html=1;align=center;verticalAlign=middle;resizable=0;points=[];autosize=1;strokeColor=none;fillColor=none;" parent="1" vertex="1">
          <mxGeometry x="732" y="770" width="60" height="30" as="geometry" />
        </mxCell>
        <mxCell id="ZU2mIR0JqzNXLWRJzjO4-97" value="アサイン" style="text;html=1;align=center;verticalAlign=middle;resizable=0;points=[];autosize=1;strokeColor=none;fillColor=none;" parent="1" vertex="1">
          <mxGeometry x="857" y="585" width="70" height="30" as="geometry" />
        </mxCell>
        <mxCell id="ZU2mIR0JqzNXLWRJzjO4-102" value="アサイン" style="text;html=1;align=center;verticalAlign=middle;resizable=0;points=[];autosize=1;strokeColor=none;fillColor=none;" parent="1" vertex="1">
          <mxGeometry x="990" y="585" width="70" height="30" as="geometry" />
        </mxCell>
        <mxCell id="ZU2mIR0JqzNXLWRJzjO4-103" value="アサイン" style="text;html=1;align=center;verticalAlign=middle;resizable=0;points=[];autosize=1;strokeColor=none;fillColor=none;" parent="1" vertex="1">
          <mxGeometry x="677" y="585" width="70" height="30" as="geometry" />
        </mxCell>
        <mxCell id="ZU2mIR0JqzNXLWRJzjO4-123" style="edgeStyle=orthogonalEdgeStyle;rounded=0;orthogonalLoop=1;jettySize=auto;html=1;exitX=0.5;exitY=1;exitDx=0;exitDy=0;" parent="1" source="ZU2mIR0JqzNXLWRJzjO4-136" edge="1">
          <mxGeometry relative="1" as="geometry">
            <mxPoint x="1308.0000000000002" y="905" as="sourcePoint" />
            <mxPoint x="803" y="1090" as="targetPoint" />
            <Array as="points">
              <mxPoint x="1305" y="1090" />
            </Array>
          </mxGeometry>
        </mxCell>
        <mxCell id="ZU2mIR0JqzNXLWRJzjO4-124" style="edgeStyle=orthogonalEdgeStyle;rounded=0;orthogonalLoop=1;jettySize=auto;html=1;entryX=1.012;entryY=0.611;entryDx=0;entryDy=0;entryPerimeter=0;exitX=0.5;exitY=1;exitDx=0;exitDy=0;" parent="1" source="ZU2mIR0JqzNXLWRJzjO4-117" target="ZU2mIR0JqzNXLWRJzjO4-7" edge="1">
          <mxGeometry relative="1" as="geometry">
            <mxPoint x="792.0020000000001" y="1133.92" as="targetPoint" />
            <mxPoint x="1641.6023809523813" y="905" as="sourcePoint" />
            <Array as="points">
              <mxPoint x="1595" y="1133" />
            </Array>
          </mxGeometry>
        </mxCell>
        <mxCell id="ZU2mIR0JqzNXLWRJzjO4-117" value="" style="rounded=1;whiteSpace=wrap;html=1;strokeWidth=3;" parent="1" vertex="1">
          <mxGeometry x="1480" y="745" width="230" height="135" as="geometry" />
        </mxCell>
        <mxCell id="ZU2mIR0JqzNXLWRJzjO4-118" value="" style="rounded=1;whiteSpace=wrap;html=1;strokeWidth=3;" parent="1" vertex="1">
          <mxGeometry x="1499.93" y="785" width="80" height="80" as="geometry" />
        </mxCell>
        <mxCell id="ZU2mIR0JqzNXLWRJzjO4-119" value="" style="rounded=1;whiteSpace=wrap;html=1;strokeWidth=3;" parent="1" vertex="1">
          <mxGeometry x="1604" y="785" width="77.13" height="80" as="geometry" />
        </mxCell>
        <mxCell id="ZU2mIR0JqzNXLWRJzjO4-120" value="プロジェクト" style="text;html=1;align=center;verticalAlign=middle;resizable=0;points=[];autosize=1;strokeColor=none;fillColor=none;" parent="1" vertex="1">
          <mxGeometry x="1544.9999999999998" y="715" width="100" height="30" as="geometry" />
        </mxCell>
        <mxCell id="ZU2mIR0JqzNXLWRJzjO4-121" value="開発チーム" style="text;html=1;align=center;verticalAlign=middle;resizable=0;points=[];autosize=1;strokeColor=none;fillColor=none;" parent="1" vertex="1">
          <mxGeometry x="1499.9299999999998" y="755" width="80" height="30" as="geometry" />
        </mxCell>
        <mxCell id="ZU2mIR0JqzNXLWRJzjO4-122" value="開発チーム" style="text;html=1;align=center;verticalAlign=middle;resizable=0;points=[];autosize=1;strokeColor=none;fillColor=none;" parent="1" vertex="1">
          <mxGeometry x="1604" y="755" width="80" height="30" as="geometry" />
        </mxCell>
        <mxCell id="ZU2mIR0JqzNXLWRJzjO4-125" value="&lt;font style=&quot;font-size: 12px;&quot;&gt;開発&lt;/font&gt;" style="text;html=1;align=center;verticalAlign=middle;resizable=0;points=[];autosize=1;strokeColor=none;fillColor=none;fontSize=24;" parent="1" vertex="1">
          <mxGeometry x="1305" y="975" width="50" height="40" as="geometry" />
        </mxCell>
        <mxCell id="ZU2mIR0JqzNXLWRJzjO4-126" value="&lt;font&gt;開発&lt;/font&gt;" style="text;html=1;align=center;verticalAlign=middle;resizable=0;points=[];autosize=1;strokeColor=none;fillColor=none;" parent="1" vertex="1">
          <mxGeometry x="1595" y="985" width="50" height="30" as="geometry" />
        </mxCell>
        <mxCell id="ZU2mIR0JqzNXLWRJzjO4-127" value="モチベーション&lt;div&gt;自信&lt;/div&gt;&lt;div&gt;ストレス&lt;/div&gt;&lt;div&gt;自己効力感&lt;/div&gt;" style="ellipse;shape=cloud;whiteSpace=wrap;html=1;strokeWidth=2;" parent="1" vertex="1">
          <mxGeometry x="1013" y="230" width="163" height="132" as="geometry" />
        </mxCell>
        <mxCell id="ZU2mIR0JqzNXLWRJzjO4-131" value="" style="ellipse;whiteSpace=wrap;html=1;aspect=fixed;strokeWidth=2;" parent="1" vertex="1">
          <mxGeometry x="1042" y="378.2" width="12" height="12" as="geometry" />
        </mxCell>
        <mxCell id="ZU2mIR0JqzNXLWRJzjO4-135" value="開発" style="text;html=1;align=center;verticalAlign=middle;resizable=0;points=[];autosize=1;strokeColor=none;fillColor=none;" parent="1" vertex="1">
          <mxGeometry x="530" y="960" width="50" height="30" as="geometry" />
        </mxCell>
        <mxCell id="ZU2mIR0JqzNXLWRJzjO4-136" value="" style="rounded=1;whiteSpace=wrap;html=1;strokeWidth=3;" parent="1" vertex="1">
          <mxGeometry x="1190" y="745" width="230" height="135" as="geometry" />
        </mxCell>
        <mxCell id="ZU2mIR0JqzNXLWRJzjO4-137" value="" style="rounded=1;whiteSpace=wrap;html=1;strokeWidth=3;" parent="1" vertex="1">
          <mxGeometry x="1209.93" y="785" width="80" height="80" as="geometry" />
        </mxCell>
        <mxCell id="ZU2mIR0JqzNXLWRJzjO4-138" value="" style="rounded=1;whiteSpace=wrap;html=1;strokeWidth=3;" parent="1" vertex="1">
          <mxGeometry x="1314" y="785" width="77.13" height="80" as="geometry" />
        </mxCell>
        <mxCell id="ZU2mIR0JqzNXLWRJzjO4-139" value="プロジェクト" style="text;html=1;align=center;verticalAlign=middle;resizable=0;points=[];autosize=1;strokeColor=none;fillColor=none;" parent="1" vertex="1">
          <mxGeometry x="1254.9999999999998" y="715" width="100" height="30" as="geometry" />
        </mxCell>
        <mxCell id="ZU2mIR0JqzNXLWRJzjO4-140" value="開発チーム" style="text;html=1;align=center;verticalAlign=middle;resizable=0;points=[];autosize=1;strokeColor=none;fillColor=none;" parent="1" vertex="1">
          <mxGeometry x="1209.9299999999998" y="755" width="80" height="30" as="geometry" />
        </mxCell>
        <mxCell id="ZU2mIR0JqzNXLWRJzjO4-141" value="開発チーム" style="text;html=1;align=center;verticalAlign=middle;resizable=0;points=[];autosize=1;strokeColor=none;fillColor=none;" parent="1" vertex="1">
          <mxGeometry x="1314" y="755" width="80" height="30" as="geometry" />
        </mxCell>
        <mxCell id="ZU2mIR0JqzNXLWRJzjO4-142" value="" style="ellipse;whiteSpace=wrap;html=1;aspect=fixed;strokeWidth=2;" parent="1" vertex="1">
          <mxGeometry x="1052" y="366.2" width="12" height="12" as="geometry" />
        </mxCell>
        <mxCell id="ZU2mIR0JqzNXLWRJzjO4-143" value="" style="ellipse;whiteSpace=wrap;html=1;aspect=fixed;strokeWidth=2;" parent="1" vertex="1">
          <mxGeometry x="1062" y="352.2" width="12" height="12" as="geometry" />
        </mxCell>
        <mxCell id="ZU2mIR0JqzNXLWRJzjO4-144" value="スキル&lt;div&gt;知識&lt;/div&gt;" style="ellipse;shape=cloud;whiteSpace=wrap;html=1;strokeWidth=2;" parent="1" vertex="1">
          <mxGeometry x="1086" y="364.2" width="80" height="62" as="geometry" />
        </mxCell>
        <mxCell id="ZU2mIR0JqzNXLWRJzjO4-145" value="" style="ellipse;whiteSpace=wrap;html=1;aspect=fixed;strokeWidth=2;" parent="1" vertex="1">
          <mxGeometry x="1074" y="407.2" width="12" height="12" as="geometry" />
        </mxCell>
        <mxCell id="ZU2mIR0JqzNXLWRJzjO4-146" value="" style="ellipse;whiteSpace=wrap;html=1;aspect=fixed;strokeWidth=2;" parent="1" vertex="1">
          <mxGeometry x="1059" y="414.7" width="11.5" height="11.5" as="geometry" />
        </mxCell>
        <mxCell id="ZU2mIR0JqzNXLWRJzjO4-147" value="" style="ellipse;whiteSpace=wrap;html=1;aspect=fixed;strokeWidth=2;" parent="1" vertex="1">
          <mxGeometry x="1042" y="419.2" width="12" height="12" as="geometry" />
        </mxCell>
      </root>
    </mxGraphModel>
  </diagram>
</mxfile>
